<svg xmlns="http://www.w3.org/2000/svg" viewBox="0 0 640 512" fill="currentColor"><path d="M400 0c5 0 9.8 2.4 12.8 6.4c34.7 46.2 56.4 96.7 64 132.4c3.2 14.9-7.7 29.2-23 29.2H386.2c-15.3 0-26.2-14.3-23-29.2c7.6-35.7 29.3-86.2 64-132.4C430.2 2.4 435 0 400 0zM0 224c0-17.7 14.3-32 32-32H64c17.7 0 32 14.3 32 32h40c0-89.1 66.2-162.7 152-174.4V32c0-17.7 14.3-32 32-32s32 14.3 32 32V49.6c85.8 11.7 152 85.3 152 174.4h40c0-17.7 14.3-32 32-32h32c17.7 0 32 14.3 32 32v64c0 17.7-14.3 32-32 32h-1.3L576 448H544V352c0-35.3-28.7-64-64-64s-64 28.7-64 64v96H384V352c0-35.3-28.7-64-64-64s-64 28.7-64 64v96H224V352c0-35.3-28.7-64-64-64s-64 28.7-64 64v96H64L33.3 320H32c-17.7 0-32-14.3-32-32V224z"/></svg>
